<svg height="512" viewBox="0 0 59 59" width="512" xmlns="http://www.w3.org/2000/svg"><g id="Page-1" fill="none" fill-rule="evenodd"><g id="053---Stirring-Coffee" fill-rule="nonzero" transform="translate(0 -1)"><path id="Shape" d="m40.218 54.047c-.3556417-.000366-.6843293-.189589-.8632324-.4969565s-.1810992-.6866248-.0057676-.9960435c1.139-2.006 3.263-3.381 6.315-4.088.381-.089.79-.177 1.216-.269 3.76-.809 8.439-1.818 9.048-6.331.315-2.331-.407-3.886-2.144-4.619-3.23-1.361-8.686.435-10.558 2.823-.3407597.4349242-.9695758.5112597-1.4045.1705s-.5112597-.9695758-.1705-1.4045c2.591-3.3 9.106-5.034 12.911-3.432 1.5.636 3.939 2.354 3.349 6.73-.8 5.9-6.7 7.177-10.61 8.018-.415.09-.812.175-1.185.262-2.486.575-4.177 1.627-5.028 3.127-.1778051.312945-.5100706.5061936-.87.506z" fill="#c03a2b"/><path id="Shape" d="m47.99 32.33c.18 8.73-1.98 27.67-23.99 27.67-22.01 0-24.17-18.94-23.99-27.67z" fill="#e64c3c"/><ellipse id="Oval" cx="24" cy="32" fill="#bdc3c7" rx="23" ry="9"/><path id="Shape" d="m14.006 54.994c-.1506822-.0001342-.299386-.034319-.435-.1-1.6917066-.8102145-3.2290891-1.9093601-4.543-3.248-2.23666645-2.3876191-3.85296949-5.2878306-4.707-8.446-.14667573-.5263152.15622961-1.0729238.68025985-1.2275647.52403024-.1546408 1.07516979.13994 1.23774015.6615647.76392435 2.8450668 2.21276542 5.4598472 4.22 7.616 1.1523525 1.1714969 2.4997878 2.1335156 3.982 2.843.4193738.2031115.6428819.6689551.5388898 1.1231734-.1039921.4542184-.5079193.7764123-.9738898.7768266z" fill="#fff"/><path id="Shape" d="m29.23 30.24c8.54.78 14.98 3.42 15.69 6.65-4.12 3.05-11.94 5.11-20.92 5.11-1.17 0-2.32-.03-3.44-.11-7.51-.45-13.9-2.35-17.48-5 .69-3.11 6.75-5.71 14.88-6.57z" fill="#a56a43"/><path id="Shape" d="m20.831 3.813c-5.166.737-13.831 2.587-13.831 6.687 0 1.992 2.066 3.675 6.14 5 1.313551.4203515 2.6488251.7695257 4 1.046l-2.66 1.6c-.3132279.1806127-.5045637.516242-.5004101.8777878.0041537.3615459.2031497.6926908.5204443.8660598.3172946.1733689.7034632.1619565 1.0099658-.0298476l5-3c.2637488-.1585659.4397988-.4297399.4772967-.7351912.0374978-.3054513-.0677334-.611156-.2852967-.8288088l-4-4c-.3923789-.3789722-1.0160848-.3735524-1.4018186.0121814s-.3911536 1.0094397-.0121814 1.4018186l1.774 1.774c-1.194-.264-2.307-.556-3.307-.882-3.508-1.146-4.755-2.387-4.755-3.102 0-1.2 3.226-3.439 12.113-4.707.544739-.0800082.922327-.58530413.8446941-1.13038673-.077633-.5450826-.5812783-.92486955-1.1266941-.84961327z" fill="#ff5364"/><path id="Shape" d="m52.861 5.5c-1.3154406-.42110579-2.6527346-.77061822-4.006-1.047l2.66-1.6c.3297257-.17202028.536753-.5128103.5374545-.88471022.0007015-.37189993-.2050386-.71346854-.5341131-.88673148s-.7271171-.14959563-1.0333414.0614417l-5 3c-.2637488.15856592-.4397988.42973994-.4772967.7351912-.0374978.30545126.0677334.61115597.2852967.8288088l4 4c.3923789.3789722 1.0160848.3735524 1.4018186-.01218142.3857338-.3857338.3911536-1.00943969.0121814-1.40181858l-1.772-1.773c1.206.266 2.32.559 3.305.881 3.513 1.143 4.76 2.384 4.76 3.099 0 1.479-4.7 4.03-15.143 5.076-.5522847.0276142-.9776142.4977153-.95 1.05.0276143.5522847.4977153.9776142 1.05.95.033 0 .067 0 .1-.005 3.974-.403 16.943-2.088 16.943-7.071 0-1.992-2.066-3.675-6.139-5z" fill="#ff5364"/><path id="Shape" d="m24 22c-13.25 0-24 4.48-24 10s10.75 10 24 10 24-4.48 24-10-10.75-10-24-10zm0 17c-11.6 0-21-3.36-21-7.5s9.4-7.5 21-7.5 21 3.36 21 7.5-9.4 7.5-21 7.5z" fill="#ecf0f1"/><path id="Shape" d="m40.59 8.02-.08.14-7.64 14.56-3.56 6.78c-.1188721.2275515-.1508631.4905888-.09.74h.01c.0210723.1284442.0687585.251066.14.36.9765095 1.8154412 1.0321879 3.9868999.15 5.85-.1619287.3430864-.5107182.5586305-.89.55h-10.97c-.5386482.000153-.9828279-.4220375-1.01-.96-.10216-1.7550202.2346551-3.5078337.98-5.1.1-.22.22-.42.33-.62.8896191-1.6660754 2.5129178-2.8149854 4.38-3.1.3899638-.0521721.7278683-.2962142.9-.65l2-4.55 7.71-17.51c.6270011-1.36475458 1.9344619-2.2913387 3.4298746-2.4307171 1.4954127-.13937839 2.9515885.52962383 3.82 1.75500002.8684116 1.22537618 1.0171265 2.82096252.3901254 4.18571708z" fill="#95a5a5"/></g></g></svg>